<svg width="14" height="26" viewBox="0 0 14 26" fill="none" xmlns="http://www.w3.org/2000/svg">
<path d="M0.500106 24.0001C0.499268 23.5717 0.648457 23.1566 0.921772 22.8267L9.13511 13.0001L1.21511 3.15508C1.06282 2.96755 0.949095 2.75177 0.88047 2.52015C0.811845 2.28853 0.789673 2.04563 0.815228 1.80541C0.840784 1.56519 0.913561 1.33239 1.02938 1.12039C1.1452 0.90839 1.30177 0.721368 1.49011 0.570077C1.67763 0.417789 1.89341 0.304065 2.12503 0.23544C2.35665 0.166816 2.59956 0.144644 2.83977 0.170199C3.07999 0.195754 3.31279 0.268532 3.52479 0.384351C3.7368 0.50017 3.92381 0.656745 4.07511 0.845077L12.9301 11.8451C13.1998 12.1731 13.3472 12.5846 13.3472 13.0092C13.3472 13.4339 13.1998 13.8454 12.9301 14.1734L3.76344 25.1734C3.60953 25.3591 3.42051 25.5125 3.20721 25.625C2.99391 25.7375 2.76051 25.8068 2.52039 25.8289C2.28026 25.851 2.03813 25.8256 1.80786 25.754C1.57758 25.6824 1.36369 25.5661 1.17844 25.4117C0.968131 25.2411 0.798228 25.0261 0.680941 24.782C0.563654 24.5379 0.501897 24.2709 0.500106 24.0001Z" fill="url(#paint0_linear_30_10831)"/>
<defs>
<linearGradient id="paint0_linear_30_10831" x1="6.92364" y1="0.159912" x2="6.92363" y2="25.8366" gradientUnits="userSpaceOnUse">
<stop stop-color="#6A11CB"/>
<stop offset="1" stop-color="#2575FC"/>
</linearGradient>
</defs>
</svg>
