<svg width="14" height="26" viewBox="0 0 14 26" fill="none" xmlns="http://www.w3.org/2000/svg">
<path d="M13.4999 1.99992C13.5007 2.42828 13.3515 2.84341 13.0782 3.17325L4.86489 12.9999L12.7849 22.8449C12.9372 23.0324 13.0509 23.2482 13.1195 23.4798C13.1882 23.7115 13.2103 23.9544 13.1848 24.1946C13.1592 24.4348 13.0864 24.6676 12.9706 24.8796C12.8548 25.0916 12.6982 25.2786 12.5099 25.4299C12.3224 25.5822 12.1066 25.6959 11.875 25.7646C11.6433 25.8332 11.4004 25.8554 11.1602 25.8298C10.92 25.8042 10.6872 25.7315 10.4752 25.6156C10.2632 25.4998 10.0762 25.3433 9.92489 25.1549L1.06989 14.1549C0.800244 13.8269 0.652832 13.4154 0.652832 12.9908C0.652832 12.5661 0.800244 12.1546 1.06989 11.8266L10.2366 0.826588C10.3905 0.640947 10.5795 0.487492 10.7928 0.375013C11.0061 0.262535 11.2395 0.193239 11.4796 0.171101C11.7197 0.148962 11.9619 0.174414 12.1921 0.245995C12.4224 0.317578 12.6363 0.433882 12.8216 0.588253C13.0319 0.75885 13.2018 0.973923 13.3191 1.21801C13.4363 1.46209 13.4981 1.72912 13.4999 1.99992Z" fill="url(#paint0_linear_30_10833)"/>
<defs>
<linearGradient id="paint0_linear_30_10833" x1="7.07636" y1="25.8401" x2="7.07636" y2="0.163359" gradientUnits="userSpaceOnUse">
<stop stop-color="#6A11CB"/>
<stop offset="1" stop-color="#2575FC"/>
</linearGradient>
</defs>
</svg>
