<svg width="26" height="18" viewBox="0 0 26 18" fill="none" xmlns="http://www.w3.org/2000/svg">
<path d="M6.13087 7.09691C7.17719 7.09691 8.20001 7.41064 9.07 7.99843C9.93998 8.58622 10.618 9.42167 11.0185 10.3991C11.4189 11.3766 11.5236 12.4522 11.3195 13.4898C11.1154 14.5275 10.6115 15.4807 9.87167 16.2288C9.13181 16.9769 8.18917 17.4864 7.16296 17.6928C6.13674 17.8992 5.07304 17.7932 4.10637 17.3884C3.1397 16.9835 2.31347 16.2978 1.73216 15.4181C1.15086 14.5385 0.84059 13.5042 0.84059 12.4462L0.816406 11.682C0.816406 8.84458 1.93114 6.12334 3.91538 4.11696C5.89962 2.11057 8.59083 0.983398 11.397 0.983398V4.04015C10.4041 4.03745 9.42048 4.23381 8.50309 4.61788C7.5857 5.00194 6.7527 5.56609 6.05227 6.2777C5.78004 6.55245 5.52891 6.84777 5.30105 7.1611C5.57161 7.1183 5.84822 7.09538 6.12936 7.09538L6.13087 7.09691ZM19.7345 7.09691C20.7808 7.09691 21.8036 7.41064 22.6736 7.99843C23.5436 8.58622 24.2216 9.42167 24.622 10.3991C25.0225 11.3766 25.1272 12.4522 24.9231 13.4898C24.719 14.5275 24.2151 15.4807 23.4753 16.2288C22.7354 16.9769 21.7928 17.4864 20.7665 17.6928C19.7403 17.8992 18.6766 17.7932 17.71 17.3884C16.7433 16.9835 15.9171 16.2978 15.3357 15.4181C14.7544 14.5385 14.4442 13.5042 14.4442 12.4462L14.42 11.682C14.42 8.84458 15.5347 6.12334 17.519 4.11696C19.5032 2.11057 22.1944 0.983398 25.0006 0.983398V4.04015C24.0076 4.03745 23.0241 4.23381 22.1067 4.61788C21.1893 5.00194 20.3563 5.56609 19.6559 6.2777C19.3836 6.55245 19.1325 6.84777 18.9046 7.1611C19.1752 7.1183 19.4518 7.09538 19.7345 7.09538V7.09691Z" fill="url(#paint0_linear_30_10866)"/>
<defs>
<linearGradient id="paint0_linear_30_10866" x1="0.816406" y1="9.38947" x2="25.0247" y2="9.38947" gradientUnits="userSpaceOnUse">
<stop stop-color="#6A11CB"/>
<stop offset="1" stop-color="#2575FC"/>
</linearGradient>
</defs>
</svg>
