<svg width="127" height="28" viewBox="0 0 127 28" fill="none" xmlns="http://www.w3.org/2000/svg">
<path d="M125.754 18.0339L111.621 0.77617C110.783 -0.273481 109.079 -0.163601 107.692 0.859804L93.0232 11.9942L83.9225 1.03442C83.0839 -0.0152338 81.3803 0.0946463 79.9931 1.11805L65.3245 12.2525L56.4849 1.36073C55.6463 0.311076 53.9426 0.420957 52.5554 1.44436L37.8868 12.5788L29.1843 1.16877C28.2772 0.378253 26.381 0.160938 25.2549 1.25241L1.93336 18.7183C0.546151 19.7417 0.134694 21.2965 0.973296 22.3462L4.78129 26.94C5.6199 27.9897 7.32354 27.8798 8.71076 26.8564L23.3108 15.9811L32.1504 26.8729C32.604 27.2681 33.3186 27.7315 33.9094 27.6084C34.7612 27.5535 35.352 27.4305 36.0798 26.7892L50.6799 15.9139L59.5195 26.8057C59.9731 27.2009 60.6877 27.6643 61.2785 27.5413C62.1303 27.4863 62.721 27.3633 63.4489 26.7221L78.0489 15.8467L86.8886 26.7385C87.3421 27.1338 88.0568 27.5971 88.6476 27.4741C89.4994 27.4191 90.0901 27.2961 90.818 26.6549L105.418 15.7796L114.656 26.2211C115.494 27.2708 117.198 27.1609 118.585 26.1375L124.794 21.6617C125.92 20.5703 126.331 19.0155 125.754 18.0339Z" fill="url(#paint0_linear_30_16393)"/>
<defs>
<linearGradient id="paint0_linear_30_16393" x1="5.97993" y1="0.227337" x2="122.909" y2="31.1711" gradientUnits="userSpaceOnUse">
<stop stop-color="#C72A16"/>
<stop offset="0.998" stop-color="#BA2244"/>
</linearGradient>
</defs>
</svg>
